<?xml version="1.0" encoding="utf-8"?>
<!-- Generator: Adobe Illustrator 24.1.2, SVG Export Plug-In . SVG Version: 6.00 Build 0)  -->
<svg version="1.1" id="Слой_1" xmlns="http://www.w3.org/2000/svg" xmlns:xlink="http://www.w3.org/1999/xlink" x="0px" y="0px"
	 viewBox="0 0 1920 1080" style="enable-background:new 0 0 1920 1080;" xml:space="preserve">
<style type="text/css">
	.st0{display:none;}
	.st1{display:inline;}
	.st2{enable-background:new    ;}
	.st3{clip-path:url(#SVGID_2_);enable-background:new    ;}
	.st4{fill:#7E98FF;}
	.st5{fill:#829BFF;}
	.st6{fill:#869EFF;}
	.st7{fill:#7A95FF;}
	.st8{fill:#7691FF;}
	.st9{fill:#728EFF;}
	.st10{fill:#6E8BFF;}
	.st11{fill:#6A88FF;}
	.st12{fill:#6685FF;}
	.st13{fill:#6281FF;}
	.st14{fill:#5E7EFF;}
	.st15{fill:#5A7BFF;}
	.st16{fill:#5678FF;}
	.st17{fill:#5274FF;}
	.st18{fill:#4E71FF;}
	.st19{fill:#4A6EFF;}
	.st20{fill:#466BFF;}
	.st21{fill:#4268FF;}
	.st22{fill:#3E64FF;}
	.st23{fill:#3A61FF;}
	.st24{fill:#8099FF;}
	.st25{clip-path:url(#SVGID_4_);enable-background:new    ;}
	.st26{clip-path:url(#SVGID_6_);enable-background:new    ;}
	.st27{clip-path:url(#SVGID_8_);enable-background:new    ;}
	.st28{fill:#486CFF;}
	.st29{clip-path:url(#SVGID_10_);enable-background:new    ;}
	.st30{clip-path:url(#SVGID_12_);enable-background:new    ;}
	.st31{fill:#FBFCFF;}
	.st32{clip-path:url(#SVGID_14_);enable-background:new    ;}
	.st33{clip-path:url(#SVGID_16_);enable-background:new    ;}
	.st34{fill:#3D64FF;}
	.st35{fill:#365EFF;}
	.st36{clip-path:url(#SVGID_18_);enable-background:new    ;}
	.st37{clip-path:url(#SVGID_20_);enable-background:new    ;}
	.st38{fill:#7490FF;}
	.st39{clip-path:url(#SVGID_22_);enable-background:new    ;}
	.st40{clip-path:url(#SVGID_24_);enable-background:new    ;}
	.st41{clip-path:url(#SVGID_26_);enable-background:new    ;}
	.st42{fill:#6987FF;}
	.st43{clip-path:url(#SVGID_28_);enable-background:new    ;}
	.st44{clip-path:url(#SVGID_30_);enable-background:new    ;}
	.st45{clip-path:url(#SVGID_32_);enable-background:new    ;}
	.st46{clip-path:url(#SVGID_34_);enable-background:new    ;}
	.st47{fill:#6886FF;}
	.st48{fill:#FFFFFF;}
	.st49{fill:none;stroke:#0033FF;stroke-width:43.462;stroke-miterlimit:10;}
</style>
<g id="потом" class="st0">
	<g class="st1">
		<g class="st2">
			<g class="st2">
				<defs>
					<path id="SVGID_1_" class="st2" d="M754.78,757.22l-144.04-36.71c-0.59-0.15-1.17-0.32-1.75-0.5
						c-6.89-2.16-15.16-6.18-15.38-13.07c-0.24-6.96,5.97-28.81,68.42-81.2c39.83-33.41,87.73-66.92,120.03-89.47l144.04,36.71
						c-32.3,22.55-80.2,56.06-120.03,89.47c-62.45,52.39-68.66,74.23-68.42,81.2c0.23,6.89,8.49,10.91,15.38,13.07
						C753.61,756.91,754.2,757.07,754.78,757.22z"/>
				</defs>
				<clipPath id="SVGID_2_">
					<use xlink:href="#SVGID_1_"  style="overflow:visible;"/>
				</clipPath>
				<g class="st3">
					<path class="st4" d="M782.06,536.28l144.04,36.71c-29.7,20.73-72.58,50.73-110.25,81.39l-144.04-36.71
						C709.48,587.01,752.36,557.01,782.06,536.28"/>
					<path class="st5" d="M671.81,617.67l144.04,36.71c-3.3,2.69-6.57,5.38-9.78,8.08c-15.75,13.21-27.92,24.48-37.32,34.06
						l-144.04-36.71c9.39-9.58,21.57-20.85,37.32-34.06C665.24,623.06,668.5,620.36,671.81,617.67"/>
					<path class="st6" d="M624.71,659.81l144.04,36.71c-14.89,15.18-22.8,26.11-26.91,33.79L597.81,693.6
						C601.92,685.92,609.83,674.99,624.71,659.81"/>
					<path class="st5" d="M597.81,693.6l144.04,36.71c-0.86,1.61-1.55,3.07-2.11,4.4L595.7,698
						C596.25,696.67,596.95,695.21,597.81,693.6"/>
					<path class="st4" d="M595.7,698l144.04,36.71c-0.35,0.83-0.64,1.61-0.89,2.34l-144.04-36.71
						C595.06,699.61,595.35,698.83,595.7,698"/>
					<path class="st7" d="M594.81,700.34l144.04,36.71c-0.19,0.55-0.35,1.07-0.48,1.56L594.33,701.9
						C594.46,701.41,594.62,700.89,594.81,700.34"/>
					<path class="st8" d="M594.33,701.9l144.04,36.71c-0.12,0.42-0.22,0.82-0.3,1.2l-144.04-36.71
						C594.11,702.72,594.21,702.32,594.33,701.9"/>
					<path class="st9" d="M594.02,703.11l144.04,36.71c-0.07,0.33-0.13,0.64-0.19,0.94l-144.04-36.71
						C593.89,703.75,593.95,703.43,594.02,703.11"/>
					<path class="st10" d="M593.84,704.05l144.04,36.71c-0.05,0.27-0.09,0.53-0.12,0.78l-144.04-36.71
						C593.75,704.58,593.79,704.32,593.84,704.05"/>
					<path class="st11" d="M593.72,704.83l144.04,36.71c-0.03,0.23-0.05,0.46-0.07,0.67L593.65,705.5
						C593.67,705.29,593.69,705.07,593.72,704.83"/>
					<path class="st12" d="M593.65,705.5l144.04,36.71c-0.02,0.21-0.03,0.4-0.04,0.59L593.61,706.1
						C593.62,705.91,593.63,705.71,593.65,705.5"/>
					<path class="st13" d="M593.61,706.1l144.04,36.71c-0.01,0.18-0.01,0.36-0.01,0.52L593.6,706.62
						C593.6,706.45,593.6,706.28,593.61,706.1"/>
					<path class="st14" d="M593.6,706.62l144.04,36.71c0,0.11,0,0.22,0.01,0.33c0,0.04,0,0.08,0.01,0.13l-144.04-36.71
						c0-0.04,0-0.08-0.01-0.13C593.61,706.84,593.6,706.73,593.6,706.62"/>
					<path class="st15" d="M593.61,707.07l144.04,36.71c0.01,0.13,0.02,0.26,0.03,0.39l-144.04-36.71
						C593.63,707.33,593.62,707.2,593.61,707.07"/>
					<path class="st16" d="M593.64,707.46l144.04,36.71c0.01,0.13,0.03,0.26,0.04,0.38l-144.04-36.71
						C593.67,707.72,593.65,707.59,593.64,707.46"/>
					<path class="st17" d="M593.69,707.84l144.04,36.71c0.02,0.14,0.04,0.28,0.07,0.42l-144.04-36.71
						C593.73,708.13,593.7,707.99,593.69,707.84"/>
					<path class="st18" d="M593.75,708.26l144.04,36.71c0.03,0.14,0.06,0.29,0.09,0.43l-144.04-36.71
						C593.81,708.55,593.78,708.41,593.75,708.26"/>
					<path class="st19" d="M593.85,708.69l144.04,36.71c0.04,0.16,0.08,0.32,0.13,0.48l-144.04-36.71
						C593.93,709.01,593.89,708.85,593.85,708.69"/>
					<path class="st20" d="M593.98,709.17l144.04,36.71c0.06,0.18,0.12,0.36,0.18,0.53L594.16,709.7
						C594.09,709.53,594.03,709.35,593.98,709.17"/>
					<path class="st21" d="M594.16,709.7l144.04,36.71c0.09,0.23,0.18,0.46,0.29,0.68l-144.04-36.71
						C594.35,710.16,594.25,709.93,594.16,709.7"/>
					<path class="st22" d="M594.45,710.38l144.04,36.71c0.16,0.33,0.33,0.64,0.52,0.95l-144.04-36.71
						C594.78,711.03,594.61,710.71,594.45,710.38"/>
					<path class="st23" d="M594.97,711.34l144.04,36.71c2.66,4.28,8.74,7.03,14.02,8.68c0.58,0.18,1.17,0.35,1.75,0.5l-144.04-36.71
						c-0.59-0.15-1.17-0.32-1.75-0.5C603.72,718.36,597.64,715.62,594.97,711.34"/>
				</g>
			</g>
			<g>
				<polygon class="st24" points="804.95,498.56 948.99,535.27 926.09,572.99 782.06,536.28 				"/>
			</g>
			<g class="st2">
				<defs>
					<path id="SVGID_3_" class="st2" d="M950.07,533.49c-0.36,0.59-0.72,1.19-1.08,1.78l-144.04-36.71
						c0.36-0.59,0.72-1.19,1.08-1.78C849.24,507.79,906.86,522.48,950.07,533.49z"/>
				</defs>
				<clipPath id="SVGID_4_">
					<use xlink:href="#SVGID_3_"  style="overflow:visible;"/>
				</clipPath>
				<g class="st25">
					<path class="st6" d="M806.03,496.78l144.04,36.71c-0.36,0.59-0.72,1.19-1.08,1.78l-144.04-36.71
						C805.31,497.97,805.67,497.37,806.03,496.78"/>
				</g>
			</g>
			<g>
				<polygon class="st9" points="845.65,461.79 989.69,498.51 988.58,499.04 844.55,462.33 				"/>
			</g>
			<g class="st2">
				<defs>
					<path id="SVGID_5_" class="st2" d="M845.27,462.48L989.3,499.2c-1.02,1.85-2.05,3.7-3.09,5.54l-144.04-36.71
						C843.21,466.18,844.24,464.33,845.27,462.48z"/>
				</defs>
				<clipPath id="SVGID_6_">
					<use xlink:href="#SVGID_5_"  style="overflow:visible;"/>
				</clipPath>
				<g class="st26">
					<path class="st6" d="M845.27,462.48L989.3,499.2c-1.02,1.85-2.05,3.7-3.09,5.54l-144.04-36.71
						C843.21,466.18,844.24,464.33,845.27,462.48"/>
				</g>
			</g>
			<g class="st2">
				<defs>
					<path id="SVGID_7_" class="st2" d="M925.71,283.06l144.04,36.71c-16.33,51.55-44.83,115.06-80.06,178.73l-144.04-36.71
						C880.88,398.12,909.38,334.61,925.71,283.06z"/>
				</defs>
				<clipPath id="SVGID_8_">
					<use xlink:href="#SVGID_7_"  style="overflow:visible;"/>
				</clipPath>
				<g class="st27">
					<path class="st7" d="M925.71,283.06l144.04,36.71c-1.08,3.41-2.21,6.88-3.4,10.39l-144.04-36.71
						C923.49,289.94,924.63,286.47,925.71,283.06"/>
					<path class="st4" d="M922.31,293.45l144.04,36.71c-5.22,15.48-11.45,31.9-18.55,48.98l-144.04-36.71
						C910.86,325.35,917.08,308.93,922.31,293.45"/>
					<path class="st5" d="M903.76,342.43l144.04,36.71c-13.44,32.35-29.99,67.06-48.75,102.14l-144.04-36.71
						C873.77,409.49,890.32,374.78,903.76,342.43"/>
					<path class="st6" d="M855.01,444.58l144.04,36.71c-3.06,5.73-6.19,11.47-9.36,17.22l-144.04-36.71
						C848.83,456.05,851.95,450.31,855.01,444.58"/>
				</g>
			</g>
			<g>
				<polygon class="st28" points="1010.35,498.65 1154.38,535.36 988.58,499.04 844.55,462.33 				"/>
			</g>
			<g class="st2">
				<defs>
					<path id="SVGID_9_" class="st2" d="M871.24,468.17l144.04,36.71c-13.08,10.23-26.04,20.56-38.9,30.81
						c-5.63,4.49-11.26,8.98-16.9,13.46l-144.04-36.71c5.64-4.48,11.27-8.97,16.9-13.46C845.2,488.73,858.16,478.41,871.24,468.17z"
						/>
				</defs>
				<clipPath id="SVGID_10_">
					<use xlink:href="#SVGID_9_"  style="overflow:visible;"/>
				</clipPath>
				<g class="st29">
					<path class="st4" d="M871.24,468.17l144.04,36.71c-13.08,10.23-26.04,20.56-38.9,30.81c-5.63,4.49-11.26,8.98-16.9,13.46
						l-144.04-36.71c5.64-4.48,11.27-8.97,16.9-13.46C845.2,488.73,858.16,478.41,871.24,468.17"/>
				</g>
			</g>
			<g class="st2">
				<defs>
					<path id="SVGID_11_" class="st2" d="M765.05,778.63c-5.24,0.37-10.33-0.08-15.3-1.35l-144.04-36.71
						c4.97,1.27,10.06,1.71,15.3,1.35c24.92-1.74,53-22.02,85.23-61.42c33.31-40.72,67-96.71,96.73-146.11
						c4.82-8.02,9.4-15.62,13.94-23.12l144.04,36.71c-4.55,7.51-9.12,15.11-13.94,23.12c-29.72,49.4-63.42,105.39-96.73,146.11
						C818.05,756.61,789.97,776.89,765.05,778.63z"/>
				</defs>
				<clipPath id="SVGID_12_">
					<use xlink:href="#SVGID_11_"  style="overflow:visible;"/>
				</clipPath>
				<g class="st30">
					<path class="st6" d="M816.92,511.27l144.04,36.71c-4.55,7.51-9.12,15.11-13.94,23.12c-29.72,49.4-63.42,105.39-96.73,146.11
						c-7.01,8.57-13.83,16.23-20.45,23L685.79,703.5c6.63-6.77,13.44-14.43,20.45-23c33.31-40.72,67-96.71,96.73-146.11
						C807.8,526.38,812.37,518.77,816.92,511.27"/>
					<path class="st5" d="M685.79,703.5l144.04,36.71c-6.04,6.17-11.93,11.59-17.67,16.27l-144.04-36.71
						C673.86,715.09,679.75,709.66,685.79,703.5"/>
					<path class="st4" d="M668.12,719.77l144.04,36.71c-3.33,2.72-6.61,5.18-9.85,7.4l-144.04-36.71
						C661.51,724.95,664.79,722.48,668.12,719.77"/>
					<path class="st7" d="M658.28,727.16l144.04,36.71c-2.4,1.64-4.77,3.15-7.11,4.52l-144.04-36.71
						C653.51,730.31,655.88,728.81,658.28,727.16"/>
					<path class="st8" d="M651.17,731.68l144.04,36.71c-1.91,1.12-3.81,2.14-5.69,3.08l-144.04-36.71
						C647.36,733.82,649.25,732.8,651.17,731.68"/>
					<path class="st9" d="M645.48,734.76l144.04,36.71c-1.63,0.81-3.24,1.55-4.84,2.23l-144.04-36.71
						C642.24,736.31,643.85,735.57,645.48,734.76"/>
					<path class="st10" d="M640.64,736.99l144.04,36.71c-1.43,0.6-2.85,1.15-4.26,1.64l-144.04-36.71
						C637.79,738.14,639.21,737.59,640.64,736.99"/>
					<path class="st11" d="M636.38,738.63l144.04,36.71c-1.29,0.45-2.57,0.86-3.85,1.22l-144.04-36.71
						C633.81,739.49,635.09,739.08,636.38,738.63"/>
					<path class="st12" d="M632.53,739.85l144.04,36.71c-1.2,0.34-2.39,0.64-3.57,0.9l-144.04-36.71
						C630.14,740.5,631.33,740.19,632.53,739.85"/>
					<path class="st13" d="M628.96,740.76L773,777.47c-1.13,0.25-2.26,0.46-3.39,0.64L625.57,741.4
						C626.7,741.22,627.82,741.01,628.96,740.76"/>
					<path class="st14" d="M625.57,741.4l144.04,36.71c-1.1,0.17-2.19,0.31-3.27,0.41L622.3,741.81
						C623.39,741.71,624.48,741.57,625.57,741.4"/>
					<path class="st15" d="M622.3,741.81l144.04,36.71c-0.43,0.04-0.86,0.08-1.29,0.11c-0.64,0.05-1.29,0.08-1.93,0.1l-144.04-36.71
						c0.64-0.02,1.28-0.05,1.93-0.1C621.44,741.89,621.87,741.85,622.3,741.81"/>
					<path class="st16" d="M619.09,742.01l144.04,36.71c-1.07,0.03-2.14,0.03-3.2,0l-144.04-36.71
						C616.95,742.05,618.02,742.05,619.09,742.01"/>
					<path class="st17" d="M615.89,742.01l144.04,36.71c-1.08-0.04-2.16-0.11-3.24-0.22L612.66,741.8
						C613.73,741.91,614.81,741.98,615.89,742.01"/>
					<path class="st18" d="M612.66,741.8l144.04,36.71c-1.12-0.11-2.24-0.27-3.35-0.46l-144.04-36.71
						C610.42,741.53,611.53,741.68,612.66,741.8"/>
					<path class="st19" d="M609.31,741.34l144.04,36.71c-1.19-0.21-2.38-0.46-3.56-0.76l-144.04-36.71
						C606.93,740.88,608.12,741.13,609.31,741.34"/>
					<path class="st20" d="M605.75,740.58l144.04,36.71c-0.01,0-0.02-0.01-0.04-0.01l-144.04-36.71
						C605.73,740.57,605.74,740.58,605.75,740.58"/>
				</g>
			</g>
			<g>
				<path class="st31" d="M806.03,496.78c-0.36,0.59-0.72,1.19-1.08,1.78l-22.89,37.72c-32.3,22.55-80.2,56.06-120.03,89.47
					c-62.45,52.39-68.66,74.23-68.42,81.2c0.23,6.89,8.49,10.91,15.38,13.07c4.19,1.31,8.49,1.77,12.89,1.46
					c47.63-3.33,106.91-96.78,157.34-180.26l36.22-28.78c0.49-0.39,0.99-0.78,1.48-1.17c-4.55,7.51-9.12,15.11-13.94,23.12
					c-29.72,49.4-63.42,105.39-96.73,146.11c-32.24,39.4-60.31,59.68-85.23,61.42c-6.12,0.43-12.05-0.26-17.8-2.06
					c-16.97-5.3-25.83-15.35-26.31-29.84c-0.8-24.12,23.59-56.12,76.75-100.72c41.13-34.51,90.37-68.86,122.95-91.59
					C789.71,508.56,800.3,501.17,806.03,496.78z"/>
			</g>
			<g>
				<polygon class="st9" points="872.42,448.89 1016.46,485.6 1000.99,493.06 856.95,456.35 				"/>
			</g>
			<g class="st2">
				<defs>
					<path id="SVGID_13_" class="st2" d="M928.52,425.11l144.04,36.71c-16.74,5.89-35.48,13.84-56.1,23.78l-144.04-36.71
						C893.04,438.95,911.78,431.01,928.52,425.11z"/>
				</defs>
				<clipPath id="SVGID_14_">
					<use xlink:href="#SVGID_13_"  style="overflow:visible;"/>
				</clipPath>
				<g class="st32">
					<path class="st10" d="M928.52,425.11l144.04,36.71c-8.01,2.82-16.47,6.11-25.38,9.86l-144.04-36.71
						C912.05,431.22,920.52,427.93,928.52,425.11"/>
					<path class="st9" d="M903.14,434.97l144.04,36.71c-9.72,4.09-19.96,8.73-30.72,13.92l-144.04-36.71
						C883.18,443.71,893.42,439.06,903.14,434.97"/>
				</g>
			</g>
			<g class="st2">
				<defs>
					<polygon id="SVGID_15_" class="st2" points="993.29,361.56 1137.33,398.27 1137.33,398.27 993.29,361.56 					"/>
				</defs>
				<clipPath id="SVGID_16_">
					<use xlink:href="#SVGID_15_"  style="overflow:visible;"/>
				</clipPath>
				<g class="st33">
					<polyline class="st23" points="993.29,361.56 1137.33,398.27 1137.33,398.27 993.29,361.56 993.29,361.56 					"/>
					<polyline class="st22" points="993.29,361.56 1137.33,398.27 1137.33,398.27 993.29,361.56 993.29,361.56 					"/>
					<polyline class="st21" points="993.29,361.56 1137.33,398.27 1137.33,398.27 993.29,361.56 993.29,361.56 					"/>
					<polyline class="st20" points="993.29,361.56 1137.33,398.27 1137.33,398.27 993.29,361.56 993.29,361.56 					"/>
					<polyline class="st19" points="993.29,361.56 1137.33,398.27 1137.33,398.27 993.29,361.56 993.29,361.56 					"/>
					<polyline class="st18" points="993.29,361.56 1137.33,398.27 1137.33,398.27 993.29,361.56 993.29,361.56 					"/>
					<polyline class="st17" points="993.29,361.56 1137.33,398.27 1137.33,398.27 993.29,361.56 993.29,361.56 					"/>
					<polyline class="st16" points="993.29,361.56 1137.33,398.27 1137.33,398.27 993.29,361.56 993.29,361.56 					"/>
					<polyline class="st15" points="993.29,361.56 1137.33,398.27 1137.33,398.27 993.29,361.56 993.29,361.56 					"/>
					<polyline class="st14" points="993.29,361.56 1137.33,398.27 1137.33,398.27 993.29,361.56 993.29,361.56 					"/>
					<polyline class="st13" points="993.29,361.56 1137.33,398.27 1137.33,398.27 993.29,361.56 993.29,361.56 					"/>
					<polyline class="st12" points="993.29,361.56 1137.33,398.27 1137.33,398.27 993.29,361.56 993.29,361.56 					"/>
					<polyline class="st11" points="993.29,361.56 1137.33,398.27 1137.33,398.27 993.29,361.56 993.29,361.56 					"/>
					<polyline class="st10" points="993.29,361.56 1137.33,398.27 1137.33,398.27 993.29,361.56 993.29,361.56 					"/>
					<polyline class="st9" points="993.29,361.56 1137.33,398.27 1137.33,398.27 993.29,361.56 993.29,361.56 					"/>
					<polyline class="st8" points="993.29,361.56 1137.33,398.27 1137.33,398.27 993.29,361.56 993.29,361.56 					"/>
					<polyline class="st7" points="993.29,361.56 1137.33,398.27 1137.33,398.27 993.29,361.56 993.29,361.56 					"/>
					<polyline class="st4" points="993.29,361.56 1137.33,398.27 1137.33,398.27 993.29,361.56 993.29,361.56 					"/>
					<polyline class="st5" points="993.29,361.56 1137.33,398.27 1137.33,398.27 993.29,361.56 993.29,361.56 					"/>
				</g>
			</g>
			<g>
				<polygon class="st34" points="993.18,361.42 1137.21,398.13 1137.33,398.27 993.29,361.56 				"/>
			</g>
			<g>
				<polygon class="st35" points="993.17,361.42 993.18,361.42 993.29,361.56 993.29,361.56 				"/>
			</g>
			<g>
				<polygon class="st34" points="919.33,245.95 1063.37,282.66 1154.82,388.88 1010.78,352.16 				"/>
			</g>
			<g class="st2">
				<defs>
					<path id="SVGID_17_" class="st2" d="M1072.56,461.83c-55.45-14.15-85.54-21.82-144.04-36.71c26.82-19.1,54.21-36.8,82.33-51.7
						l144.04,36.71C1126.77,425.03,1099.38,442.72,1072.56,461.83z"/>
				</defs>
				<clipPath id="SVGID_18_">
					<use xlink:href="#SVGID_17_"  style="overflow:visible;"/>
				</clipPath>
				<g class="st36">
					<path class="st8" d="M1010.85,373.42l144.04,36.71c-6.95,3.68-13.87,7.54-20.73,11.55l-144.04-36.71
						C996.99,380.96,1003.9,377.1,1010.85,373.42"/>
					<path class="st7" d="M990.12,384.97l144.04,36.71c-15.57,9.08-30.93,18.94-46.1,29.32l-144.04-36.71
						C959.19,403.91,974.54,394.05,990.12,384.97"/>
					<path class="st4" d="M944.02,414.29L1088.05,451c-5.19,3.55-10.35,7.16-15.49,10.82l-144.04-36.71
						C933.66,421.45,938.83,417.84,944.02,414.29"/>
				</g>
			</g>
			<g class="st2">
				<defs>
					<path id="SVGID_19_" class="st2" d="M997.02,434.27l144.04,36.71c-4.41-1.13-10.06-1.54-17.03-1.05
						c-16.63,1.16-40.83,7.45-73.92,21.41l-144.04-36.71c33.1-13.96,57.29-20.25,73.92-21.41
						C986.96,432.73,992.6,433.15,997.02,434.27z"/>
				</defs>
				<clipPath id="SVGID_20_">
					<use xlink:href="#SVGID_19_"  style="overflow:visible;"/>
				</clipPath>
				<g class="st37">
					<path class="st20" d="M997.02,434.27l144.04,36.71c-0.01,0-0.02,0-0.03-0.01l-144.04-36.71
						C997,434.27,997.01,434.27,997.02,434.27"/>
					<path class="st19" d="M996.99,434.26l144.04,36.71c-0.83-0.21-1.7-0.4-2.62-0.56l-144.04-36.71
						C995.29,433.87,996.16,434.05,996.99,434.26"/>
					<path class="st18" d="M994.37,433.71l144.04,36.71c-0.97-0.17-1.99-0.31-3.07-0.42l-144.04-36.71
						C992.38,433.4,993.4,433.54,994.37,433.71"/>
					<path class="st17" d="M991.31,433.29L1135.34,470c-1.16-0.12-2.39-0.2-3.67-0.24l-144.04-36.71
						C988.92,433.09,990.14,433.17,991.31,433.29"/>
					<path class="st16" d="M987.64,433.05l144.04,36.71c-1.42-0.05-2.91-0.05-4.48,0l-144.04-36.71
						C984.73,433.01,986.22,433.01,987.64,433.05"/>
					<path class="st15" d="M983.16,433.06l144.04,36.71c-1.03,0.03-2.08,0.09-3.17,0.16c-0.78,0.05-1.58,0.12-2.39,0.2L977.6,433.42
						c0.81-0.08,1.61-0.14,2.39-0.2C981.08,433.14,982.14,433.09,983.16,433.06"/>
					<path class="st14" d="M977.6,433.42l144.04,36.71c-2.24,0.21-4.61,0.51-7.11,0.91l-144.04-36.71
						C972.99,433.93,975.36,433.63,977.6,433.42"/>
					<path class="st13" d="M970.49,434.33l144.04,36.71c-2.91,0.46-6,1.04-9.26,1.76l-144.04-36.71
						C964.49,435.37,967.58,434.78,970.49,434.33"/>
					<path class="st12" d="M961.22,436.09l144.04,36.71c-3.88,0.86-8.02,1.9-12.42,3.15L948.8,439.24
						C953.2,437.99,957.34,436.94,961.22,436.09"/>
					<path class="st11" d="M948.8,439.24l144.04,36.71c-5.37,1.53-11.13,3.36-17.3,5.52L931.5,444.76
						C937.67,442.6,943.43,440.76,948.8,439.24"/>
					<path class="st10" d="M931.5,444.76l144.04,36.71c-7.71,2.7-16.05,5.92-25.05,9.71l-144.04-36.71
						C915.45,450.68,923.79,447.46,931.5,444.76"/>
					<path class="st9" d="M906.45,454.47l144.04,36.71c-0.13,0.05-0.25,0.11-0.38,0.16l-144.04-36.71
						C906.19,454.58,906.32,454.52,906.45,454.47"/>
				</g>
			</g>
			<g>
				<polygon class="st34" points="1010.78,352.16 1154.82,388.88 1167.41,403.5 1023.37,366.79 				"/>
			</g>
			<g>
				<path class="st31" d="M919.33,245.95l91.45,106.22l12.59,14.62l-12.52,6.63c-28.12,14.9-55.51,32.6-82.33,51.7
					c-16.74,5.89-35.48,13.84-56.1,23.78l-15.47,7.45c43.76-34.43,88.87-68.15,136.34-94.79l-67.58-78.5
					c-16.33,51.55-44.83,115.06-80.06,178.73l-1.1,0.53l0.72,0.16c-1.02,1.85-2.05,3.7-3.09,5.54c2.05-1.62,4.09-3.25,6.15-4.87
					l22.91,5.02c-13.08,10.23-26.04,20.56-38.9,30.81c-5.63,4.49-11.26,8.98-16.9,13.46l-36.53,29.02l3.14-5.18l22.89-37.72
					c0.36-0.59,0.72-1.19,1.08-1.78c49.58-81.99,91.18-171.67,108.72-234.46L919.33,245.95z"/>
			</g>
			<g>
				<polygon class="st38" points="1023.37,366.79 1167.41,403.5 1154.89,410.13 1010.85,373.42 				"/>
			</g>
			<g class="st2">
				<defs>
					<path id="SVGID_21_" class="st2" d="M1002.03,414.24l144.04,36.71c8.47,2.16,14.82,6.38,18.99,12.64l-144.04-36.71
						C1016.85,420.62,1010.5,416.4,1002.03,414.24z"/>
				</defs>
				<clipPath id="SVGID_22_">
					<use xlink:href="#SVGID_21_"  style="overflow:visible;"/>
				</clipPath>
				<g class="st39">
					<path class="st23" d="M1002.03,414.24l144.04,36.71c8.47,2.16,14.82,6.38,18.99,12.64l-144.04-36.71
						C1016.85,420.62,1010.5,416.4,1002.03,414.24"/>
				</g>
			</g>
			<g class="st2">
				<defs>
					<path id="SVGID_23_" class="st2" d="M1002.6,754.09l-144.04-36.71c-1.88-0.48-3.26-1.21-4.28-2.07
						c-1.75-1.46-2.09-2.97-2.06-4.79c0.07-4.52,3.06-18.61,29.45-51.7c17.33-21.73,37.94-43.28,51.57-57.54
						c5.49-5.73,9.82-10.26,12.44-13.26c29.38-34.25,51.05-64.28,64.52-89.4l144.04,36.71c-13.47,25.12-35.14,55.15-64.52,89.4
						c-2.62,3-6.96,7.53-12.44,13.26c-13.63,14.26-34.25,35.81-51.57,57.54c-26.39,33.09-29.38,47.18-29.45,51.7
						c-0.02,1.82,0.32,3.33,2.06,4.79C999.34,752.88,1000.73,753.61,1002.6,754.09z"/>
				</defs>
				<clipPath id="SVGID_24_">
					<use xlink:href="#SVGID_23_"  style="overflow:visible;"/>
				</clipPath>
				<g class="st40">
					<path class="st6" d="M1010.22,498.62l144.04,36.71c-13.47,25.12-35.14,55.15-64.52,89.4c-2.62,3-6.96,7.53-12.44,13.26
						c-13.63,14.26-34.25,35.81-51.57,57.54c-11.67,14.63-18.76,25.55-23.05,33.56l-144.04-36.71c4.29-8.02,11.38-18.93,23.05-33.56
						c17.33-21.73,37.94-43.28,51.57-57.54c5.49-5.73,9.82-10.26,12.44-13.26C975.08,553.77,996.74,523.74,1010.22,498.62"/>
					<path class="st5" d="M858.62,692.39l144.04,36.71c-1.53,2.86-2.71,5.35-3.6,7.51L855.02,699.9
						C855.92,697.74,857.09,695.25,858.62,692.39"/>
					<path class="st4" d="M855.02,699.9l144.04,36.71c-0.52,1.25-0.94,2.38-1.29,3.41l-144.04-36.71
						C854.08,702.29,854.5,701.15,855.02,699.9"/>
					<path class="st7" d="M853.73,703.32l144.04,36.71c-0.26,0.77-0.48,1.48-0.66,2.14l-144.04-36.71
						C853.25,704.8,853.47,704.09,853.73,703.32"/>
					<path class="st8" d="M853.07,705.46l144.04,36.71c-0.15,0.53-0.27,1.03-0.37,1.5L852.7,706.95
						C852.8,706.49,852.92,705.99,853.07,705.46"/>
					<path class="st9" d="M852.7,706.95l144.04,36.71c-0.09,0.4-0.16,0.78-0.22,1.13l-144.04-36.71
						C852.54,707.73,852.61,707.35,852.7,706.95"/>
					<path class="st10" d="M852.48,708.08l144.04,36.71c-0.05,0.31-0.1,0.61-0.13,0.88l-144.04-36.71
						C852.38,708.69,852.42,708.39,852.48,708.08"/>
					<path class="st11" d="M852.34,708.96l144.04,36.71c-0.03,0.25-0.06,0.48-0.07,0.7l-144.04-36.71
						C852.29,709.45,852.31,709.21,852.34,708.96"/>
					<path class="st12" d="M852.27,709.67l144.04,36.71c-0.02,0.2-0.03,0.4-0.04,0.57l-144.04-36.71
						C852.24,710.06,852.25,709.87,852.27,709.67"/>
					<path class="st13" d="M852.23,710.24l144.04,36.71c0,0.1-0.01,0.19-0.01,0.28c0,0.07,0,0.14,0,0.21l-144.04-36.71
						c0-0.07,0-0.14,0-0.21C852.23,710.43,852.23,710.34,852.23,710.24"/>
					<path class="st14" d="M852.23,710.73l144.04,36.71c0,0.15,0,0.3,0.01,0.44l-144.04-36.71
						C852.23,711.03,852.23,710.88,852.23,710.73"/>
					<path class="st15" d="M852.24,711.17l144.04,36.71c0.01,0.12,0.01,0.25,0.02,0.37l-144.04-36.71
						C852.25,711.42,852.24,711.3,852.24,711.17"/>
					<path class="st16" d="M852.26,711.54l144.04,36.71c0.01,0.11,0.02,0.21,0.04,0.32L852.3,711.86
						C852.28,711.75,852.27,711.65,852.26,711.54"/>
					<path class="st17" d="M852.3,711.86l144.04,36.71c0.01,0.1,0.03,0.2,0.05,0.3l-144.04-36.71
						C852.33,712.06,852.31,711.96,852.3,711.86"/>
					<path class="st18" d="M852.35,712.16l144.04,36.71c0.02,0.1,0.04,0.19,0.06,0.29l-144.04-36.71
						C852.38,712.35,852.36,712.25,852.35,712.16"/>
					<path class="st19" d="M852.41,712.44l144.04,36.71c0.02,0.1,0.05,0.19,0.08,0.29l-144.04-36.71
						C852.46,712.63,852.43,712.54,852.41,712.44"/>
					<path class="st20" d="M852.48,712.73l144.04,36.71c0.03,0.1,0.06,0.2,0.1,0.3l-144.04-36.71
						C852.55,712.93,852.52,712.83,852.48,712.73"/>
					<path class="st21" d="M852.59,713.03l144.04,36.71c0.04,0.12,0.09,0.23,0.15,0.35l-144.04-36.71
						C852.68,713.27,852.63,713.15,852.59,713.03"/>
					<path class="st22" d="M852.73,713.38l144.04,36.71c0.07,0.16,0.16,0.31,0.25,0.47l-144.04-36.71
						C852.89,713.7,852.81,713.54,852.73,713.38"/>
					<path class="st23" d="M852.99,713.85l144.04,36.71c0.31,0.5,0.73,0.98,1.3,1.46c1.02,0.86,2.4,1.59,4.28,2.07l-144.04-36.71
						c-1.88-0.48-3.26-1.21-4.28-2.07C853.72,714.83,853.3,714.35,852.99,713.85"/>
				</g>
			</g>
			<g>
				<polygon class="st4" points="1013.73,491.82 1157.76,528.53 1154.38,535.36 1010.35,498.65 				"/>
			</g>
			<g>
				<path class="st31" d="M1021.02,426.88c9.44,14.19,6.98,36.03-7.29,64.94l-3.38,6.83l-165.8-36.33l1.1-0.53l11.3-5.45l15.47-7.46
					c20.62-9.94,39.36-17.88,56.1-23.78c15.08-5.31,28.53-8.96,40.25-10.91c4.14-0.69,8.07-1.17,11.78-1.43
					C1000.28,411.4,1013.86,416.12,1021.02,426.88z M1002.87,475.85c5.07-11.66,9.98-27.14,4.73-35.04
					c-3.64-5.48-12.51-8.65-27.61-7.59c-16.63,1.16-40.83,7.45-73.92,21.41L1002.87,475.85"/>
			</g>
			<g class="st2">
				<defs>
					<path id="SVGID_25_" class="st2" d="M1021.02,426.88l144.04,36.71c9.44,14.19,6.98,36.03-7.29,64.94l-144.04-36.71
						C1028,462.91,1030.46,441.07,1021.02,426.88z"/>
				</defs>
				<clipPath id="SVGID_26_">
					<use xlink:href="#SVGID_25_"  style="overflow:visible;"/>
				</clipPath>
				<g class="st41">
					<path class="st23" d="M1021.02,426.88l144.04,36.71c0.19,0.28,0.37,0.56,0.55,0.85l-144.04-36.71
						C1021.39,427.44,1021.21,427.16,1021.02,426.88"/>
					<path class="st22" d="M1021.57,427.73l144.04,36.71c0.62,1,1.18,2.03,1.68,3.1l-144.04-36.71
						C1022.74,429.76,1022.18,428.73,1021.57,427.73"/>
					<path class="st21" d="M1023.25,430.83l144.04,36.71c0.36,0.77,0.7,1.56,1,2.37l-144.04-36.71
						C1023.95,432.39,1023.61,431.6,1023.25,430.83"/>
					<path class="st20" d="M1024.25,433.2l144.04,36.71c0.26,0.68,0.5,1.38,0.71,2.09l-144.04-36.71
						C1024.75,434.59,1024.51,433.89,1024.25,433.2"/>
					<path class="st19" d="M1024.97,435.3L1169,472.01c0.2,0.65,0.38,1.31,0.54,1.98l-144.04-36.71
						C1025.34,436.6,1025.16,435.94,1024.97,435.3"/>
					<path class="st18" d="M1025.51,437.28l144.04,36.71c0.15,0.63,0.29,1.28,0.41,1.93l-144.04-36.71
						C1025.8,438.55,1025.66,437.91,1025.51,437.28"/>
					<path class="st17" d="M1025.92,439.21l144.04,36.71c0.12,0.63,0.22,1.26,0.31,1.91l-144.04-36.71
						C1026.14,440.47,1026.04,439.83,1025.92,439.21"/>
					<path class="st16" d="M1026.23,441.11l144.04,36.71c0.09,0.64,0.16,1.29,0.22,1.95l-144.04-36.71
						C1026.39,442.4,1026.32,441.75,1026.23,441.11"/>
					<path class="st15" d="M1026.45,443.06l144.04,36.71c0.06,0.66,0.11,1.34,0.14,2.02l-144.04-36.71
						C1026.56,444.4,1026.51,443.73,1026.45,443.06"/>
					<path class="st14" d="M1026.59,445.08l144.04,36.71c0.03,0.7,0.05,1.4,0.05,2.12l-144.04-36.71
						C1026.64,446.49,1026.62,445.78,1026.59,445.08"/>
					<path class="st13" d="M1026.64,447.2l144.04,36.71c0,0.75-0.01,1.52-0.04,2.29L1026.6,449.5
						C1026.63,448.72,1026.64,447.96,1026.64,447.2"/>
					<path class="st12" d="M1026.6,449.5l144.04,36.71c-0.03,0.82-0.08,1.65-0.15,2.49l-144.04-36.71
						C1026.52,451.15,1026.57,450.32,1026.6,449.5"/>
					<path class="st11" d="M1026.45,451.99l144.04,36.71c-0.08,0.91-0.17,1.83-0.29,2.77l-144.04-36.71
						C1026.27,453.82,1026.37,452.9,1026.45,451.99"/>
					<path class="st10" d="M1026.16,454.76l144.04,36.71c-0.13,1.04-0.29,2.09-0.47,3.16l-144.04-36.71
						C1025.87,456.85,1026.02,455.8,1026.16,454.76"/>
					<path class="st9" d="M1025.68,457.92l144.04,36.71c-0.21,1.23-0.46,2.47-0.74,3.74l-144.04-36.71
						C1025.22,460.39,1025.47,459.15,1025.68,457.92"/>
					<path class="st8" d="M1024.94,461.66l144.04,36.71c-0.33,1.5-0.72,3.04-1.15,4.6l-144.04-36.71
						C1024.23,464.7,1024.61,463.17,1024.94,461.66"/>
					<path class="st7" d="M1023.8,466.27l144.04,36.71c-0.54,1.96-1.15,3.96-1.85,6.01l-144.04-36.71
						C1022.64,470.22,1023.26,468.22,1023.8,466.27"/>
					<path class="st4" d="M1021.95,472.27l144.04,36.71c-0.97,2.87-2.09,5.84-3.36,8.89l-144.04-36.71
						C1019.86,478.11,1020.98,475.15,1021.95,472.27"/>
					<path class="st5" d="M1018.58,481.17l144.04,36.71c-1.43,3.44-3.05,6.99-4.86,10.65l-144.04-36.71
						C1015.54,488.15,1017.16,484.6,1018.58,481.17"/>
				</g>
			</g>
			<g>
				<polygon class="st34" points="1023.61,367.07 1167.65,403.78 1247.87,496.95 1103.83,460.23 				"/>
			</g>
			<g>
				<polygon class="st42" points="1101.86,481.37 1245.9,518.08 1241.6,519.39 1097.57,482.68 				"/>
			</g>
			<g>
				<polygon class="st28" points="1205.9,541.49 1349.94,578.2 1154.39,535.36 1010.35,498.65 				"/>
			</g>
			<g class="st2">
				<defs>
					<path id="SVGID_27_" class="st2" d="M1298.94,284.01l144.04,36.71c-7.48-1.91-17.94-2.98-32.52-1.96
						c-7.25,0.51-15.51,1.53-24.94,3.23c-46.86,8.44-108.49,30.67-183.19,66.05c-6.06,2.88-12.19,5.6-18.1,8.23
						c-5.67,2.52-11.17,4.97-16.57,7.51l-144.04-36.71c5.4-2.54,10.9-4.99,16.57-7.51c5.92-2.63,12.04-5.35,18.1-8.23
						c74.7-35.39,136.33-57.61,183.19-66.05c9.43-1.7,17.69-2.72,24.94-3.23C1281,281.03,1291.46,282.11,1298.94,284.01z"/>
				</defs>
				<clipPath id="SVGID_28_">
					<use xlink:href="#SVGID_27_"  style="overflow:visible;"/>
				</clipPath>
				<g class="st43">
					<path class="st20" d="M1298.94,284.01l144.04,36.71c-0.01,0-0.03-0.01-0.04-0.01L1298.89,284
						C1298.91,284,1298.92,284.01,1298.94,284.01"/>
					<path class="st19" d="M1298.89,284l144.04,36.71c-1.5-0.38-3.12-0.73-4.87-1.03l-144.04-36.71
						C1295.77,283.27,1297.39,283.62,1298.89,284"/>
					<path class="st18" d="M1294.02,282.97l144.04,36.71c-1.79-0.31-3.72-0.58-5.79-0.79l-144.04-36.71
						C1290.3,282.39,1292.23,282.66,1294.02,282.97"/>
					<path class="st17" d="M1288.23,282.18l144.04,36.71c-2.17-0.22-4.5-0.38-7-0.46l-144.04-36.71
						C1283.73,281.81,1286.06,281.96,1288.23,282.18"/>
					<path class="st16" d="M1281.23,281.72l144.04,36.71c-2.68-0.09-5.55-0.09-8.63,0.01l-144.04-36.71
						C1275.68,281.63,1278.56,281.64,1281.23,281.72"/>
					<path class="st15" d="M1272.6,281.73l144.04,36.71c-1.97,0.06-4.03,0.17-6.18,0.32c-1.51,0.11-3.07,0.23-4.68,0.39
						l-144.04-36.71c1.6-0.15,3.16-0.28,4.68-0.39C1268.57,281.9,1270.63,281.8,1272.6,281.73"/>
					<path class="st14" d="M1261.75,282.44l144.04,36.71c-4.35,0.41-9.03,1-14.07,1.8l-144.04-36.71
						C1252.72,283.44,1257.4,282.85,1261.75,282.44"/>
					<path class="st13" d="M1247.68,284.23l144.04,36.71c-2.01,0.32-4.07,0.66-6.2,1.05c-4.18,0.75-8.49,1.62-12.9,2.59
						l-144.04-36.71c4.42-0.97,8.72-1.84,12.9-2.59C1243.61,284.9,1245.67,284.55,1247.68,284.23"/>
					<path class="st12" d="M1228.58,287.87l144.04,36.71c-8.18,1.8-16.76,3.98-25.73,6.53l-144.04-36.71
						C1211.82,291.85,1220.4,289.67,1228.58,287.87"/>
					<path class="st11" d="M1202.85,294.4l144.04,36.71c-11.39,3.24-23.41,7.07-36.05,11.5l-144.04-36.71
						C1179.43,301.47,1191.46,297.63,1202.85,294.4"/>
					<path class="st10" d="M1166.79,305.9l144.04,36.71c-16.74,5.87-34.56,12.78-53.42,20.72l-144.04-36.71
						C1132.24,318.68,1150.06,311.77,1166.79,305.9"/>
					<path class="st9" d="M1113.38,326.62l144.04,36.71c-17.48,7.36-35.85,15.6-55.09,24.71c-6.06,2.88-12.19,5.6-18.1,8.23
						c-5.67,2.52-11.17,4.97-16.57,7.51l-144.04-36.71c5.4-2.54,10.9-4.99,16.57-7.51c5.92-2.63,12.04-5.35,18.1-8.23
						C1077.53,342.22,1095.9,333.98,1113.38,326.62"/>
				</g>
			</g>
			<g class="st2">
				<defs>
					<path id="SVGID_29_" class="st2" d="M997.31,774.02l-144.04-36.71c3.69,0.94,7.87,1.23,12.56,0.9
						c34.04-2.38,94.3-37.12,179.76-87.98c71-42.26,144.43-85.96,197.07-101.58l144.04,36.71
						c-52.64,15.62-126.07,59.32-197.07,101.58c-85.46,50.86-145.73,85.6-179.76,87.98C1005.18,775.24,1001,774.96,997.31,774.02z"
						/>
				</defs>
				<clipPath id="SVGID_30_">
					<use xlink:href="#SVGID_29_"  style="overflow:visible;"/>
				</clipPath>
				<g class="st44">
					<path class="st11" d="M1242.67,548.64l144.04,36.71c-3.77,1.12-7.65,2.38-11.62,3.78l-144.04-36.71
						C1235.02,551.02,1238.9,549.76,1242.67,548.64"/>
					<path class="st10" d="M1231.05,552.42l144.04,36.71c-6.44,2.26-13.15,4.88-20.07,7.79l-144.04-36.71
						C1217.9,557.3,1224.6,554.68,1231.05,552.42"/>
					<path class="st9" d="M1210.98,560.21l144.04,36.71c-10.64,4.48-21.81,9.69-33.37,15.44l-144.04-36.71
						C1189.17,569.9,1200.33,564.7,1210.98,560.21"/>
					<path class="st8" d="M1177.61,575.65l144.04,36.71c-26.15,13.02-54.31,28.85-82.94,45.55l-144.04-36.71
						C1123.3,604.5,1151.46,588.67,1177.61,575.65"/>
					<path class="st7" d="M1094.67,621.21l144.04,36.71c-16.3,9.51-32.75,19.3-49.08,29.02c-15.16,9.02-29.52,17.53-43.09,25.45
						l-144.04-36.71c13.57-7.92,27.93-16.43,43.09-25.45C1061.92,640.51,1078.37,630.72,1094.67,621.21"/>
					<path class="st8" d="M1002.51,675.67l144.04,36.71c-27.31,15.94-51.39,29.45-72.18,39.8l-144.04-36.71
						C951.12,705.12,975.19,691.61,1002.51,675.67"/>
					<path class="st9" d="M930.33,715.48l144.04,36.71c-8.56,4.26-16.56,7.98-24,11.12L906.33,726.6
						C913.77,723.46,921.77,719.73,930.33,715.48"/>
					<path class="st10" d="M906.33,726.6l144.04,36.71c-4.78,2.01-9.32,3.79-13.64,5.3L892.69,731.9
						C897.01,730.38,901.55,728.61,906.33,726.6"/>
					<path class="st11" d="M892.69,731.9l144.04,36.71c-3.21,1.13-6.29,2.12-9.25,2.96l-144.04-36.71
						C886.4,734.01,889.48,733.03,892.69,731.9"/>
					<path class="st12" d="M883.45,734.85l144.04,36.71c-2.32,0.66-4.56,1.23-6.72,1.7l-144.04-36.71
						C878.89,736.08,881.13,735.51,883.45,734.85"/>
					<path class="st13" d="M876.73,736.56l144.04,36.71c-1.78,0.39-3.5,0.72-5.17,0.98l-144.04-36.71
						C873.23,737.28,874.95,736.95,876.73,736.56"/>
					<path class="st14" d="M871.56,737.54l144.04,36.71c-1.42,0.22-2.81,0.4-4.16,0.53L867.4,738.07
						C868.75,737.94,870.13,737.77,871.56,737.54"/>
					<path class="st15" d="M867.4,738.07l144.04,36.71c-0.53,0.05-1.05,0.09-1.57,0.13c-0.69,0.05-1.37,0.08-2.04,0.1l-144.04-36.71
						c0.67-0.02,1.35-0.06,2.04-0.1C866.35,738.17,866.87,738.13,867.4,738.07"/>
					<path class="st16" d="M863.79,738.31l144.04,36.71c-1.04,0.03-2.06,0.03-3.05,0l-144.04-36.71
						C861.73,738.34,862.75,738.34,863.79,738.31"/>
					<path class="st17" d="M860.74,738.31l144.04,36.71c-0.92-0.03-1.82-0.09-2.7-0.18l-144.04-36.71
						C858.91,738.22,859.81,738.28,860.74,738.31"/>
					<path class="st18" d="M858.04,738.13l144.04,36.71c-0.84-0.08-1.66-0.2-2.45-0.33L855.58,737.8
						C856.38,737.94,857.2,738.05,858.04,738.13"/>
					<path class="st19" d="M855.58,737.8l144.04,36.71c-0.78-0.14-1.54-0.3-2.29-0.49L853.3,737.31
						C854.04,737.5,854.8,737.66,855.58,737.8"/>
					<path class="st20" d="M853.3,737.31l144.04,36.71c-0.01,0-0.01,0-0.02-0.01l-144.04-36.71
						C853.28,737.31,853.29,737.31,853.3,737.31"/>
				</g>
			</g>
			<g class="st2">
				<defs>
					<path id="SVGID_31_" class="st2" d="M1304.25,263.99l144.04,36.71c10.14,2.58,17.98,7,23.36,13.29l-144.04-36.71
						C1322.22,270.99,1314.38,266.57,1304.25,263.99z"/>
				</defs>
				<clipPath id="SVGID_32_">
					<use xlink:href="#SVGID_31_"  style="overflow:visible;"/>
				</clipPath>
				<g class="st45">
					<path class="st23" d="M1304.25,263.99l144.04,36.71c10.14,2.58,17.98,7,23.36,13.29l-144.04-36.71
						C1322.22,270.99,1314.38,266.57,1304.25,263.99"/>
				</g>
			</g>
			<g class="st2">
				<defs>
					<path id="SVGID_33_" class="st2" d="M1327.6,277.27l144.04,36.71c8.29,9.68,10.46,23.57,6.1,39.09
						c-7.55,26.89-33.77,58.06-73.84,87.77c-30.38,22.53-82.46,54.22-158.01,77.24l-144.04-36.71
						c75.54-23.02,127.63-54.71,158.01-77.24c40.07-29.71,66.29-60.87,73.84-87.77C1338.06,300.84,1335.9,286.96,1327.6,277.27z"/>
				</defs>
				<clipPath id="SVGID_34_">
					<use xlink:href="#SVGID_33_"  style="overflow:visible;"/>
				</clipPath>
				<g class="st46">
					<path class="st23" d="M1327.6,277.27l144.04,36.71c1.12,1.31,2.13,2.69,3.02,4.15l-144.04-36.71
						C1329.73,279.97,1328.72,278.58,1327.6,277.27"/>
					<path class="st22" d="M1330.63,281.42l144.04,36.71c0.65,1.05,1.24,2.14,1.77,3.27l-144.04-36.71
						C1331.87,283.57,1331.28,282.48,1330.63,281.42"/>
					<path class="st21" d="M1332.4,284.69l144.04,36.71c0.39,0.83,0.75,1.67,1.07,2.54l-144.04-36.71
						C1333.14,286.37,1332.79,285.52,1332.4,284.69"/>
					<path class="st20" d="M1333.47,287.23l144.04,36.71c0.27,0.72,0.52,1.45,0.75,2.2l-144.04-36.71
						C1333.99,288.68,1333.74,287.95,1333.47,287.23"/>
					<path class="st19" d="M1334.21,289.43l144.04,36.71c0.2,0.67,0.39,1.35,0.56,2.04l-144.04-36.71
						C1334.6,290.78,1334.42,290.1,1334.21,289.43"/>
					<path class="st18" d="M1334.77,291.47l144.04,36.71c0.16,0.64,0.3,1.3,0.42,1.96l-144.04-36.71
						C1335.07,292.77,1334.93,292.12,1334.77,291.47"/>
					<path class="st17" d="M1335.19,293.43l144.04,36.71c0.12,0.63,0.22,1.27,0.31,1.92l-144.04-36.71
						C1335.41,294.7,1335.31,294.06,1335.19,293.43"/>
					<path class="st16" d="M1335.5,295.35l144.04,36.71c0.09,0.63,0.16,1.26,0.22,1.91l-144.04-36.71
						C1335.66,296.61,1335.59,295.97,1335.5,295.35"/>
					<path class="st15" d="M1335.72,297.25l144.04,36.71c0.06,0.64,0.1,1.28,0.13,1.93l-144.04-36.71
						C1335.82,298.53,1335.78,297.89,1335.72,297.25"/>
					<path class="st14" d="M1335.85,299.18l144.04,36.71c0.03,0.65,0.05,1.31,0.05,1.97l-144.04-36.71
						C1335.9,300.48,1335.88,299.83,1335.85,299.18"/>
					<path class="st13" d="M1335.9,301.15l144.04,36.71c0,0.68-0.01,1.36-0.04,2.04l-144.04-36.71
						C1335.89,302.5,1335.9,301.82,1335.9,301.15"/>
					<path class="st12" d="M1335.86,303.19l144.04,36.71c-0.03,0.71-0.07,1.43-0.13,2.15l-144.04-36.71
						C1335.79,304.62,1335.84,303.9,1335.86,303.19"/>
					<path class="st11" d="M1335.73,305.34l144.04,36.71c-0.06,0.76-0.14,1.52-0.24,2.29l-144.04-36.71
						C1335.59,306.86,1335.67,306.1,1335.73,305.34"/>
					<path class="st10" d="M1335.49,307.63l144.04,36.71c-0.1,0.83-0.23,1.66-0.37,2.5l-144.04-36.71
						C1335.27,309.29,1335.39,308.46,1335.49,307.63"/>
					<path class="st9" d="M1335.12,310.13l144.04,36.71c-0.16,0.92-0.34,1.84-0.55,2.77l-144.04-36.71
						C1334.78,311.97,1334.96,311.04,1335.12,310.13"/>
					<path class="st8" d="M1334.58,312.9l144.04,36.71c-0.23,1.04-0.49,2.09-0.78,3.14l-144.04-36.71
						C1334.09,314.99,1334.35,313.94,1334.58,312.9"/>
					<path class="st7" d="M1333.79,316.04l144.04,36.71c-0.03,0.11-0.06,0.22-0.09,0.32c-0.34,1.21-0.72,2.43-1.13,3.65
						l-144.04-36.71c0.41-1.23,0.79-2.44,1.13-3.65C1333.74,316.26,1333.77,316.15,1333.79,316.04"/>
					<path class="st4" d="M1332.57,320.01l144.04,36.71c-0.59,1.75-1.26,3.51-2,5.29l-144.04-36.71
						C1331.32,323.53,1331.98,321.76,1332.57,320.01"/>
					<path class="st5" d="M1330.58,325.31l144.04,36.71c-1.2,2.87-2.58,5.78-4.16,8.72l-144.04-36.71
						C1327.99,331.08,1329.38,328.18,1330.58,325.31"/>
					<path class="st6" d="M1326.41,334.02l144.04,36.71c-6.5,12.12-16.21,24.79-28.74,37.58l-144.04-36.71
						C1310.21,358.82,1319.91,346.14,1326.41,334.02"/>
					<path class="st5" d="M1297.67,371.6l144.04,36.71c-7.24,7.39-15.43,14.81-24.48,22.18l-144.04-36.71
						C1282.25,386.41,1290.43,378.99,1297.67,371.6"/>
					<path class="st4" d="M1273.19,393.79l144.04,36.71c-4.25,3.46-8.69,6.91-13.32,10.34c-3.82,2.83-7.97,5.8-12.48,8.88
						l-144.04-36.71c4.5-3.08,8.66-6.06,12.48-8.88C1264.5,400.7,1268.94,397.25,1273.19,393.79"/>
					<path class="st7" d="M1247.39,413.01l144.04,36.71c-8.13,5.57-17.39,11.49-27.8,17.56l-144.04-36.71
						C1230,424.51,1239.26,418.58,1247.39,413.01"/>
					<path class="st8" d="M1219.59,430.58l144.04,36.71c-8.99,5.24-18.84,10.6-29.55,15.93l-144.04-36.71
						C1200.75,441.18,1210.6,435.82,1219.59,430.58"/>
					<path class="st9" d="M1190.04,446.51l144.04,36.71c-9.69,4.82-20.1,9.63-31.23,14.31l-144.04-36.71
						C1169.94,456.13,1180.34,451.33,1190.04,446.51"/>
					<path class="st10" d="M1158.81,460.82l144.04,36.71c-10.4,4.38-21.43,8.65-33.1,12.75l-144.04-36.71
						C1137.38,469.47,1148.41,465.2,1158.81,460.82"/>
					<path class="st11" d="M1125.7,473.56l144.04,36.71c-7.67,2.69-15.62,5.3-23.84,7.81l-144.04-36.71
						C1110.09,478.86,1118.03,476.25,1125.7,473.56"/>
				</g>
			</g>
			<g>
				<path class="st31" d="M1327.6,277.27c8.29,9.68,10.46,23.57,6.1,39.09c-7.55,26.89-33.77,58.06-73.84,87.77
					c-30.38,22.53-82.46,54.22-158.01,77.24l-4.29,1.31l-91.74-106.56c1.67-0.91,3.35-1.81,5.03-2.7l12.52-6.63l-12.59-14.62
					c8.42-4.24,16.97-8.04,25.28-11.74c5.83-2.59,11.85-5.27,17.74-8.06c91.32-43.27,164.7-67.26,213.75-70.69
					C1296.45,259.66,1316.89,264.77,1327.6,277.27z M1317.95,311.71c3.01-10.75-0.02-15.94-2.57-18.91
					c-3.81-4.45-15.63-13.08-48.96-10.74c-7.25,0.51-15.51,1.53-24.94,3.23c-46.86,8.44-108.49,30.67-183.19,66.05
					c-6.06,2.88-12.19,5.6-18.1,8.23c-5.67,2.52-11.17,4.97-16.57,7.51l80.22,93.16c70.98-22.21,119.88-52,148.58-73.28
					C1287.54,360.92,1312.03,332.78,1317.95,311.71"/>
			</g>
			<g>
				<polygon class="st47" points="1281.95,536.99 1425.99,573.7 1386.7,585.36 1242.67,548.64 				"/>
			</g>
			<g>
				<path class="st31" d="M1019.29,479.44l262.66,57.55l-39.29,11.66c-52.64,15.62-126.07,59.32-197.07,101.58
					c-85.46,50.86-145.73,85.6-179.76,87.98c-9.3,0.65-16.64-1.12-22.01-5.63c-5.55-4.67-8.42-11.63-8.3-20.14
					c0.45-32.17,45.51-81.94,87.72-126.06c5.27-5.51,9.44-9.88,11.68-12.44c25.92-30.22,45.45-56.74,58.24-79.06l17.06,3.74
					c-13.47,25.12-35.14,55.15-64.52,89.4c-2.62,3-6.96,7.53-12.44,13.26c-13.63,14.26-34.25,35.81-51.57,57.54
					c-26.39,33.09-29.38,47.18-29.45,51.7c-0.02,1.82,0.32,3.33,2.06,4.79c2.12,1.78,5.83,3.02,12.24,2.57
					c9.78-0.68,25.83-5.28,52.1-17.83c34.09-16.28,76.33-41.42,121.06-68.04c57.66-34.31,116.88-69.56,166.22-90.52l-195.55-42.84
					l3.37-6.83C1015.84,487.54,1017.7,483.41,1019.29,479.44z"/>
			</g>
		</g>
	</g>
</g>
<g>
	<path class="st48" d="M1082.35,852.48c-67.32-328.5-58.26-329.44,201.37-561.82c-273.17,219.72-274.54,219.64-485.91-49.12
		c203.83,273.53,199.4,276.44-221,423.7C1000.15,521.8,1001.46,528.85,1082.35,852.48z"/>
	<path class="st49" d="M1082.35,852.48c-67.32-328.5-58.26-329.44,201.37-561.82c-273.17,219.72-274.54,219.64-485.91-49.12
		c203.83,273.53,199.4,276.44-221,423.7C1000.15,521.8,1001.46,528.85,1082.35,852.48z"/>
</g>
</svg>
